<svg width="1280" height="917" viewBox="0 0 1280 917" fill="none" xmlns="http://www.w3.org/2000/svg">
<g opacity="0.34" clip-path="url(#clip0_29_344)">
<path d="M463.205 722.35C534.799 793.944 678.371 766.634 783.883 661.351C889.394 556.068 916.89 412.681 845.295 341.086C773.701 269.492 630.129 296.802 524.617 402.085C419.106 507.368 391.61 650.755 463.205 722.35Z" fill="#A57939" style="fill:#A57939;fill:color(display-p3 0.6471 0.4745 0.2235);fill-opacity:1;"/>
<path fill-rule="evenodd" clip-rule="evenodd" d="M465.337 724.482C465.234 724.379 465.356 724.208 465.488 724.273C541.628 761.783 662.072 726.484 755.299 633.459C848.578 540.382 884.034 420.025 846.463 343.933C846.161 343.322 846.947 342.738 847.428 343.219C917.845 413.636 889.394 556.068 783.883 661.351C678.371 766.634 535.753 794.898 465.337 724.482Z" fill="#6A462F" style="fill:#6A462F;fill:color(display-p3 0.4157 0.2745 0.1843);fill-opacity:1;"/>
<path fill-rule="evenodd" clip-rule="evenodd" d="M483.676 701.922C483.676 701.922 519.109 584.781 613.316 490.779C707.2 397.097 824.028 361.75 824.825 361.51C824.262 361.68 765.948 379.369 719.072 426.143C671.969 473.145 654.253 531.715 654.253 531.715C654.253 531.715 636.536 590.285 589.433 637.287C542.329 684.289 483.676 701.922 483.676 701.922Z" fill="#6A462F" style="fill:#6A462F;fill:color(display-p3 0.4157 0.2745 0.1843);fill-opacity:1;"/>
<path d="M483.676 701.922L474.439 699.125C473.411 702.525 474.338 706.216 476.853 708.73C479.368 711.245 483.061 712.175 486.466 711.153L483.676 701.922ZM824.825 361.51L827.626 370.735C832.725 369.196 835.605 363.818 834.059 358.722C832.512 353.628 827.126 350.744 822.027 352.282L824.825 361.51ZM606.493 483.956C558.441 531.904 525.479 585.636 504.545 627.268C494.066 648.108 486.568 665.982 481.678 678.682C479.233 685.033 477.438 690.096 476.247 693.593C475.652 695.343 475.207 696.701 474.908 697.634C474.758 698.101 474.645 698.462 474.567 698.711C474.528 698.836 474.498 698.934 474.477 699.003C474.467 699.038 474.458 699.065 474.452 699.085C474.448 699.095 474.446 699.104 474.444 699.111C474.443 699.115 474.44 699.124 474.439 699.125C474.439 699.125 477.519 700.054 483.676 701.922C489.835 703.787 492.913 704.72 492.912 704.722C492.915 704.714 492.92 704.692 492.927 704.67C492.941 704.626 492.963 704.554 492.994 704.454C493.056 704.256 493.153 703.947 493.286 703.533C493.552 702.704 493.961 701.454 494.517 699.816C495.633 696.541 497.342 691.717 499.69 685.617C504.389 673.416 511.637 656.129 521.791 635.934C542.126 595.495 573.984 543.655 620.138 497.601L606.493 483.956ZM822.027 352.282C820.783 352.658 702.09 388.566 606.493 483.956L620.138 497.601C712.311 405.628 827.275 370.841 827.626 370.735L822.027 352.282ZM725.895 432.966C748.389 410.521 773.742 394.955 793.655 384.964C813.538 374.987 827.712 370.71 827.626 370.735L822.027 352.282C821.017 352.588 760.836 370.84 712.25 419.321L725.895 432.966ZM654.253 531.715C660.411 533.58 663.491 534.509 663.49 534.512C663.495 534.496 663.504 534.461 663.518 534.417C663.545 534.33 663.59 534.189 663.652 533.995C663.776 533.606 663.972 533.009 664.241 532.217C664.78 530.635 665.612 528.283 666.763 525.297C669.064 519.32 672.625 510.824 677.622 500.888C687.639 480.966 703.292 455.521 725.895 432.966L712.25 419.321C687.749 443.768 670.992 471.106 660.375 492.22C655.054 502.803 651.242 511.886 648.75 518.361C647.502 521.599 646.584 524.19 645.969 525.994C645.663 526.897 645.431 527.604 645.273 528.096C645.194 528.342 645.134 528.536 645.09 528.673C645.069 528.742 645.052 528.797 645.04 528.838C645.033 528.859 645.028 528.876 645.024 528.889C645.022 528.895 645.021 528.901 645.019 528.906C645.019 528.904 645.019 528.908 645.019 528.906C645.019 528.906 648.096 529.848 654.253 531.715ZM654.253 531.715C648.096 529.848 645.019 528.906 645.019 528.906C645.019 528.906 645.017 528.917 645.014 528.925C645.01 528.94 645.001 528.97 644.987 529.013C644.96 529.1 644.916 529.242 644.853 529.436C644.729 529.824 644.533 530.422 644.265 531.213C643.726 532.795 642.893 535.147 641.743 538.134C639.441 544.111 635.88 552.606 630.884 562.543C620.866 582.464 605.214 607.91 582.611 630.465L596.256 644.11C620.757 619.663 637.513 592.324 648.13 571.21C653.451 560.629 657.263 551.544 659.756 545.07C661.003 541.831 661.921 539.241 662.536 537.436C662.843 536.533 663.075 535.828 663.232 535.335C663.311 535.088 663.372 534.896 663.415 534.757C663.436 534.688 663.453 534.633 663.466 534.592C663.472 534.572 663.477 534.555 663.482 534.542C663.483 534.535 663.485 534.53 663.487 534.525C663.487 534.522 663.487 534.526 663.487 534.525C663.487 534.525 660.409 533.583 654.253 531.715ZM582.611 630.465C560.007 653.019 534.516 668.626 514.562 678.611C504.609 683.592 496.101 687.14 490.115 689.432C487.124 690.578 484.768 691.407 483.184 691.944C482.391 692.211 481.793 692.406 481.404 692.53C481.209 692.592 481.068 692.636 480.981 692.663C480.937 692.677 480.908 692.686 480.892 692.69C480.884 692.693 480.88 692.694 480.878 692.694C480.878 692.694 481.814 695.769 483.676 701.922C485.536 708.076 486.463 711.154 486.466 711.153C486.466 711.153 486.475 711.148 486.478 711.148C486.482 711.146 486.488 711.144 486.495 711.143C486.508 711.138 486.525 711.134 486.545 711.127C486.586 711.115 486.641 711.098 486.71 711.077C486.848 711.033 487.042 710.973 487.289 710.895C487.782 710.737 488.489 710.507 489.393 710.202C491.201 709.589 493.795 708.675 497.038 707.432C503.522 704.95 512.62 701.152 523.219 695.848C544.368 685.265 571.756 668.558 596.256 644.11L582.611 630.465Z" fill="#6A462F" style="fill:#6A462F;fill:color(display-p3 0.4157 0.2745 0.1843);fill-opacity:1;"/>
<path d="M463.205 722.35C534.799 793.944 678.371 766.634 783.883 661.351C889.394 556.068 916.89 412.681 845.295 341.086C773.701 269.492 630.129 296.802 524.617 402.085C419.106 507.368 391.61 650.755 463.205 722.35Z" stroke="black" style="stroke:black;stroke-opacity:1;" stroke-width="2"/>
<path d="M654.25 531.718C654.25 531.718 671.966 473.148 719.07 426.146C766.173 379.145 824.826 361.511 824.826 361.511" stroke="black" style="stroke:black;stroke-opacity:1;" stroke-width="2" stroke-linecap="round" stroke-linejoin="round"/>
<path d="M654.25 531.718C654.25 531.718 636.534 590.288 589.43 637.29C542.327 684.291 483.674 701.925 483.674 701.925" stroke="black" style="stroke:black;stroke-opacity:1;" stroke-width="2" stroke-linecap="round" stroke-linejoin="round"/>
<path d="M463.205 722.35C534.799 793.944 678.371 766.634 783.883 661.351C889.394 556.068 916.89 412.681 845.295 341.086C773.701 269.492 630.129 296.802 524.617 402.085C419.106 507.368 391.61 650.755 463.205 722.35Z" fill="#A57939" style="fill:#A57939;fill:color(display-p3 0.6471 0.4745 0.2235);fill-opacity:1;"/>
<path fill-rule="evenodd" clip-rule="evenodd" d="M465.337 724.482C465.234 724.379 465.356 724.208 465.488 724.273C541.628 761.783 662.072 726.484 755.299 633.459C848.578 540.382 884.034 420.025 846.463 343.933C846.161 343.322 846.947 342.738 847.428 343.219C917.845 413.636 889.394 556.068 783.883 661.351C678.371 766.634 535.753 794.898 465.337 724.482Z" fill="#6A462F" style="fill:#6A462F;fill:color(display-p3 0.4157 0.2745 0.1843);fill-opacity:1;"/>
<path fill-rule="evenodd" clip-rule="evenodd" d="M483.676 701.922C483.676 701.922 519.109 584.781 613.316 490.779C707.2 397.097 824.028 361.75 824.825 361.51C824.262 361.68 765.948 379.369 719.072 426.143C671.969 473.145 654.253 531.715 654.253 531.715C654.253 531.715 636.536 590.285 589.433 637.287C542.329 684.289 483.676 701.922 483.676 701.922Z" fill="#6A462F" style="fill:#6A462F;fill:color(display-p3 0.4157 0.2745 0.1843);fill-opacity:1;"/>
<path d="M483.676 701.922L474.439 699.125C473.411 702.525 474.338 706.216 476.853 708.73C479.368 711.245 483.061 712.175 486.466 711.153L483.676 701.922ZM824.825 361.51L827.626 370.735C832.725 369.196 835.605 363.818 834.059 358.722C832.512 353.628 827.126 350.744 822.027 352.282L824.825 361.51ZM606.493 483.956C558.441 531.904 525.479 585.636 504.545 627.268C494.066 648.108 486.568 665.982 481.678 678.682C479.233 685.033 477.438 690.096 476.247 693.593C475.652 695.343 475.207 696.701 474.908 697.634C474.758 698.101 474.645 698.462 474.567 698.711C474.528 698.836 474.498 698.934 474.477 699.003C474.467 699.038 474.458 699.065 474.452 699.085C474.448 699.095 474.446 699.104 474.444 699.111C474.443 699.115 474.44 699.124 474.439 699.125C474.439 699.125 477.519 700.054 483.676 701.922C489.835 703.787 492.913 704.72 492.912 704.722C492.915 704.714 492.92 704.692 492.927 704.67C492.941 704.626 492.963 704.554 492.994 704.454C493.056 704.256 493.153 703.947 493.286 703.533C493.552 702.704 493.961 701.454 494.517 699.816C495.633 696.541 497.342 691.717 499.69 685.617C504.389 673.416 511.637 656.129 521.791 635.934C542.126 595.495 573.984 543.655 620.138 497.601L606.493 483.956ZM822.027 352.282C820.783 352.658 702.09 388.566 606.493 483.956L620.138 497.601C712.311 405.628 827.275 370.841 827.626 370.735L822.027 352.282ZM725.895 432.966C748.389 410.521 773.742 394.955 793.655 384.964C813.538 374.987 827.712 370.71 827.626 370.735L822.027 352.282C821.017 352.588 760.836 370.84 712.25 419.321L725.895 432.966ZM654.253 531.715C660.411 533.58 663.491 534.509 663.49 534.512C663.495 534.496 663.504 534.461 663.518 534.417C663.545 534.33 663.59 534.189 663.652 533.995C663.776 533.606 663.972 533.009 664.241 532.217C664.78 530.635 665.612 528.283 666.763 525.297C669.064 519.32 672.625 510.824 677.622 500.888C687.639 480.966 703.292 455.521 725.895 432.966L712.25 419.321C687.749 443.768 670.992 471.106 660.375 492.22C655.054 502.803 651.242 511.886 648.75 518.361C647.502 521.599 646.584 524.19 645.969 525.994C645.663 526.897 645.431 527.604 645.273 528.096C645.194 528.342 645.134 528.536 645.09 528.673C645.069 528.742 645.052 528.797 645.04 528.838C645.033 528.859 645.028 528.876 645.024 528.889C645.022 528.895 645.021 528.901 645.019 528.906C645.019 528.904 645.019 528.908 645.019 528.906C645.019 528.906 648.096 529.848 654.253 531.715ZM654.253 531.715C648.096 529.848 645.019 528.906 645.019 528.906C645.019 528.906 645.017 528.917 645.014 528.925C645.01 528.94 645.001 528.97 644.987 529.013C644.96 529.1 644.916 529.242 644.853 529.436C644.729 529.824 644.533 530.422 644.265 531.213C643.726 532.795 642.893 535.147 641.743 538.134C639.441 544.111 635.88 552.606 630.884 562.543C620.866 582.464 605.214 607.91 582.611 630.465L596.256 644.11C620.757 619.663 637.513 592.324 648.13 571.21C653.451 560.629 657.263 551.544 659.756 545.07C661.003 541.831 661.921 539.241 662.536 537.436C662.843 536.533 663.075 535.828 663.232 535.335C663.311 535.088 663.372 534.896 663.415 534.757C663.436 534.688 663.453 534.633 663.466 534.592C663.472 534.572 663.477 534.555 663.482 534.542C663.483 534.535 663.485 534.53 663.487 534.525C663.487 534.522 663.487 534.526 663.487 534.525C663.487 534.525 660.409 533.583 654.253 531.715ZM582.611 630.465C560.007 653.019 534.516 668.626 514.562 678.611C504.609 683.592 496.101 687.14 490.115 689.432C487.124 690.578 484.768 691.407 483.184 691.944C482.391 692.211 481.793 692.406 481.404 692.53C481.209 692.592 481.068 692.636 480.981 692.663C480.937 692.677 480.908 692.686 480.892 692.69C480.884 692.693 480.88 692.694 480.878 692.694C480.878 692.694 481.814 695.769 483.676 701.922C485.536 708.076 486.463 711.154 486.466 711.153C486.466 711.153 486.475 711.148 486.478 711.148C486.482 711.146 486.488 711.144 486.495 711.143C486.508 711.138 486.525 711.134 486.545 711.127C486.586 711.115 486.641 711.098 486.71 711.077C486.848 711.033 487.042 710.973 487.289 710.895C487.782 710.737 488.489 710.507 489.393 710.202C491.201 709.589 493.795 708.675 497.038 707.432C503.522 704.95 512.62 701.152 523.219 695.848C544.368 685.265 571.756 668.558 596.256 644.11L582.611 630.465Z" fill="#6A462F" style="fill:#6A462F;fill:color(display-p3 0.4157 0.2745 0.1843);fill-opacity:1;"/>
<path d="M463.205 722.35C534.799 793.944 678.371 766.634 783.883 661.351C889.394 556.068 916.89 412.681 845.295 341.086C773.701 269.492 630.129 296.802 524.617 402.085C419.106 507.368 391.61 650.755 463.205 722.35Z" stroke="black" style="stroke:black;stroke-opacity:1;" stroke-width="2"/>
<path d="M654.25 531.718C654.25 531.718 671.966 473.148 719.07 426.146C766.173 379.145 824.826 361.511 824.826 361.511" stroke="black" style="stroke:black;stroke-opacity:1;" stroke-width="2" stroke-linecap="round" stroke-linejoin="round"/>
<path d="M654.25 531.718C654.25 531.718 636.534 590.288 589.43 637.29C542.326 684.291 483.674 701.925 483.674 701.925" stroke="black" style="stroke:black;stroke-opacity:1;" stroke-width="2" stroke-linecap="round" stroke-linejoin="round"/>
</g>
<g opacity="0.34" clip-path="url(#clip1_29_344)">
<path d="M155.049 384.875C203.266 402.72 263.712 359.667 290.06 288.713C316.408 217.76 298.679 145.774 250.463 127.929C202.246 110.083 141.799 153.136 115.452 224.09C89.1038 295.044 106.832 367.029 155.049 384.875Z" fill="#A57939" style="fill:#A57939;fill:color(display-p3 0.6471 0.4745 0.2235);fill-opacity:1;"/>
<path fill-rule="evenodd" clip-rule="evenodd" d="M156.485 385.406C156.416 385.38 156.436 385.276 156.51 385.278C199.595 386.433 247.676 344.6 270.956 281.908C294.249 219.18 285.078 156.131 251.605 128.994C251.336 128.776 251.575 128.34 251.899 128.46C299.323 146.012 316.408 217.759 290.06 288.713C263.712 359.667 203.908 402.958 156.485 385.406Z" fill="#6A462F" style="fill:#6A462F;fill:color(display-p3 0.4157 0.2745 0.1843);fill-opacity:1;"/>
<path fill-rule="evenodd" clip-rule="evenodd" d="M160.161 371.108C160.161 371.108 151.662 309.547 175.187 246.196C198.631 183.061 245.034 141.973 245.35 141.693C245.127 141.891 221.975 162.421 210.269 193.944C198.507 225.62 202.756 256.4 202.756 256.4C202.756 256.4 207.006 287.18 195.244 318.856C183.481 350.532 160.161 371.108 160.161 371.108Z" fill="#6A462F" style="fill:#6A462F;fill:color(display-p3 0.4157 0.2745 0.1843);fill-opacity:1;"/>
<path d="M160.161 371.108L155.306 371.777C155.553 373.563 156.763 375.069 158.457 375.696C160.151 376.323 162.052 375.969 163.406 374.775L160.161 371.108ZM245.35 141.693L248.599 145.356C250.625 143.564 250.813 140.472 249.019 138.449C247.225 136.426 244.129 136.238 242.102 138.029L245.35 141.693ZM170.592 244.495C158.592 276.809 154.782 308.591 153.954 332.239C153.54 344.076 153.872 353.913 154.31 360.81C154.529 364.258 154.774 366.975 154.967 368.841C155.063 369.774 155.146 370.495 155.206 370.989C155.236 371.236 155.26 371.427 155.277 371.558C155.286 371.624 155.293 371.676 155.298 371.712C155.3 371.73 155.302 371.745 155.303 371.756C155.304 371.761 155.305 371.765 155.305 371.769C155.306 371.771 155.306 371.776 155.306 371.777C155.306 371.777 156.924 371.552 160.161 371.108C163.398 370.662 165.016 370.439 165.016 370.441C165.015 370.436 165.013 370.425 165.012 370.414C165.009 370.39 165.004 370.352 164.997 370.3C164.983 370.195 164.963 370.032 164.936 369.813C164.883 369.374 164.806 368.71 164.716 367.837C164.536 366.089 164.301 363.501 164.091 360.189C163.67 353.563 163.348 344.05 163.749 332.579C164.553 309.609 168.256 278.934 179.781 247.897L170.592 244.495ZM242.102 138.029C241.608 138.466 194.464 180.209 170.592 244.495L179.781 247.897C202.798 185.913 248.46 145.479 248.599 145.356L242.102 138.029ZM214.864 195.645C220.481 180.518 228.877 167.959 235.944 159.126C243.002 150.305 248.634 145.325 248.599 145.356L242.102 138.029C241.701 138.385 217.807 159.57 205.674 192.243L214.864 195.645ZM202.756 256.4C205.993 255.954 207.611 255.729 207.611 255.731C207.61 255.722 207.607 255.704 207.604 255.681C207.598 255.635 207.589 255.561 207.576 255.458C207.551 255.252 207.515 254.935 207.471 254.513C207.384 253.669 207.269 252.407 207.167 250.785C206.961 247.539 206.802 242.864 206.999 237.22C207.395 225.904 209.22 210.845 214.864 195.645L205.674 192.243C199.556 208.719 197.624 224.886 197.204 236.88C196.993 242.891 197.162 247.89 197.385 251.406C197.496 253.164 197.622 254.554 197.721 255.517C197.771 255.999 197.814 256.374 197.846 256.634C197.862 256.765 197.875 256.867 197.884 256.94C197.889 256.976 197.893 257.005 197.896 257.027C197.897 257.037 197.898 257.046 197.899 257.053C197.9 257.057 197.9 257.06 197.9 257.062C197.9 257.061 197.901 257.063 197.9 257.062C197.9 257.062 199.52 256.844 202.756 256.4ZM202.756 256.4C199.52 256.844 197.9 257.062 197.9 257.062C197.9 257.062 197.902 257.067 197.902 257.072C197.903 257.08 197.906 257.095 197.909 257.118C197.914 257.164 197.924 257.239 197.936 257.342C197.961 257.547 197.998 257.864 198.042 258.287C198.129 259.131 198.243 260.393 198.346 262.014C198.552 265.26 198.711 269.935 198.514 275.579C198.117 286.895 196.293 301.955 190.649 317.155L199.839 320.556C205.957 304.081 207.889 287.913 208.309 275.92C208.519 269.909 208.351 264.91 208.128 261.394C208.016 259.635 207.891 258.245 207.792 257.282C207.741 256.801 207.699 256.426 207.667 256.165C207.651 256.035 207.638 255.933 207.629 255.86C207.624 255.824 207.62 255.794 207.617 255.773C207.616 255.762 207.615 255.753 207.614 255.746C207.613 255.743 207.613 255.74 207.613 255.737C207.612 255.736 207.613 255.738 207.613 255.737C207.613 255.737 205.993 255.956 202.756 256.4ZM190.649 317.155C185.005 332.355 176.554 344.963 169.466 353.802C165.931 358.211 162.757 361.652 160.482 363.98C159.345 365.143 158.434 366.025 157.817 366.609C157.508 366.9 157.274 367.117 157.12 367.257C157.044 367.326 156.988 367.377 156.953 367.408C156.936 367.423 156.924 367.434 156.918 367.439C156.915 367.442 156.913 367.444 156.913 367.444C156.913 367.444 157.997 368.664 160.161 371.108C162.324 373.552 163.405 374.776 163.406 374.775C163.406 374.775 163.409 374.771 163.41 374.77C163.412 374.768 163.414 374.766 163.417 374.764C163.422 374.759 163.429 374.753 163.437 374.746C163.453 374.732 163.475 374.712 163.502 374.688C163.557 374.638 163.634 374.57 163.731 374.481C163.925 374.304 164.202 374.048 164.555 373.715C165.259 373.049 166.261 372.077 167.494 370.816C169.959 368.295 173.351 364.613 177.116 359.918C184.629 350.55 193.721 337.032 199.839 320.556L190.649 317.155Z" fill="#6A462F" style="fill:#6A462F;fill:color(display-p3 0.4157 0.2745 0.1843);fill-opacity:1;"/>
<path d="M155.049 384.875C203.266 402.72 263.712 359.667 290.06 288.713C316.408 217.76 298.679 145.774 250.463 127.929C202.246 110.083 141.799 153.136 115.452 224.09C89.1038 295.044 106.832 367.029 155.049 384.875Z" stroke="black" style="stroke:black;stroke-opacity:1;" stroke-width="2"/>
<path d="M202.756 256.402C202.756 256.402 198.506 225.622 210.269 193.946C222.031 162.27 245.351 141.694 245.351 141.694" stroke="black" style="stroke:black;stroke-opacity:1;" stroke-width="2" stroke-linecap="round" stroke-linejoin="round"/>
<path d="M202.756 256.402C202.756 256.402 207.005 287.182 195.243 318.857C183.48 350.533 160.16 371.11 160.16 371.11" stroke="black" style="stroke:black;stroke-opacity:1;" stroke-width="2" stroke-linecap="round" stroke-linejoin="round"/>
<path d="M155.049 384.875C203.266 402.72 263.712 359.667 290.06 288.713C316.408 217.76 298.679 145.774 250.463 127.929C202.246 110.083 141.799 153.136 115.452 224.09C89.1038 295.044 106.832 367.029 155.049 384.875Z" fill="#A57939" style="fill:#A57939;fill:color(display-p3 0.6471 0.4745 0.2235);fill-opacity:1;"/>
<path fill-rule="evenodd" clip-rule="evenodd" d="M156.485 385.406C156.416 385.38 156.436 385.276 156.51 385.278C199.595 386.433 247.676 344.6 270.956 281.908C294.249 219.18 285.078 156.131 251.605 128.994C251.336 128.776 251.575 128.34 251.899 128.46C299.323 146.012 316.408 217.759 290.06 288.713C263.712 359.667 203.908 402.958 156.485 385.406Z" fill="#6A462F" style="fill:#6A462F;fill:color(display-p3 0.4157 0.2745 0.1843);fill-opacity:1;"/>
<path fill-rule="evenodd" clip-rule="evenodd" d="M160.161 371.108C160.161 371.108 151.662 309.547 175.187 246.196C198.631 183.061 245.034 141.973 245.35 141.693C245.127 141.891 221.975 162.421 210.269 193.944C198.507 225.62 202.756 256.4 202.756 256.4C202.756 256.4 207.006 287.18 195.244 318.856C183.481 350.532 160.161 371.108 160.161 371.108Z" fill="#6A462F" style="fill:#6A462F;fill:color(display-p3 0.4157 0.2745 0.1843);fill-opacity:1;"/>
<path d="M160.161 371.108L155.306 371.777C155.553 373.563 156.763 375.069 158.457 375.696C160.151 376.323 162.052 375.969 163.406 374.775L160.161 371.108ZM245.35 141.693L248.599 145.356C250.625 143.564 250.813 140.472 249.019 138.449C247.225 136.426 244.129 136.238 242.102 138.029L245.35 141.693ZM170.592 244.495C158.592 276.809 154.782 308.591 153.954 332.239C153.54 344.076 153.872 353.913 154.31 360.81C154.529 364.258 154.774 366.975 154.967 368.841C155.063 369.774 155.146 370.495 155.206 370.989C155.236 371.236 155.26 371.427 155.277 371.558C155.286 371.624 155.293 371.676 155.298 371.712C155.3 371.73 155.302 371.745 155.303 371.756C155.304 371.761 155.305 371.765 155.305 371.769C155.306 371.771 155.306 371.776 155.306 371.777C155.306 371.777 156.924 371.552 160.161 371.108C163.398 370.662 165.016 370.439 165.016 370.441C165.015 370.436 165.013 370.425 165.012 370.414C165.009 370.39 165.004 370.352 164.997 370.3C164.983 370.195 164.963 370.032 164.936 369.813C164.883 369.374 164.806 368.71 164.716 367.837C164.536 366.089 164.301 363.501 164.091 360.189C163.67 353.563 163.348 344.05 163.749 332.579C164.553 309.609 168.256 278.934 179.781 247.897L170.592 244.495ZM242.102 138.029C241.608 138.466 194.464 180.209 170.592 244.495L179.781 247.897C202.798 185.913 248.46 145.479 248.599 145.356L242.102 138.029ZM214.864 195.645C220.481 180.518 228.877 167.959 235.944 159.126C243.002 150.305 248.634 145.325 248.599 145.356L242.102 138.029C241.701 138.385 217.807 159.57 205.674 192.243L214.864 195.645ZM202.756 256.4C205.993 255.954 207.611 255.729 207.611 255.731C207.61 255.722 207.607 255.704 207.604 255.681C207.598 255.635 207.589 255.561 207.576 255.458C207.551 255.252 207.515 254.935 207.471 254.513C207.384 253.669 207.269 252.407 207.167 250.785C206.961 247.539 206.802 242.864 206.999 237.22C207.395 225.904 209.22 210.845 214.864 195.645L205.674 192.243C199.556 208.719 197.624 224.886 197.204 236.88C196.993 242.891 197.162 247.89 197.385 251.406C197.496 253.164 197.622 254.554 197.721 255.517C197.771 255.999 197.814 256.374 197.846 256.634C197.862 256.765 197.875 256.867 197.884 256.94C197.889 256.976 197.893 257.005 197.896 257.027C197.897 257.037 197.898 257.046 197.899 257.053C197.9 257.057 197.9 257.06 197.9 257.062C197.9 257.061 197.901 257.063 197.9 257.062C197.9 257.062 199.52 256.844 202.756 256.4ZM202.756 256.4C199.52 256.844 197.9 257.062 197.9 257.062C197.9 257.062 197.902 257.067 197.902 257.072C197.903 257.08 197.906 257.095 197.909 257.118C197.914 257.164 197.924 257.239 197.936 257.342C197.961 257.547 197.998 257.864 198.042 258.287C198.129 259.131 198.243 260.393 198.346 262.014C198.552 265.26 198.711 269.935 198.514 275.579C198.117 286.895 196.293 301.955 190.649 317.155L199.839 320.556C205.957 304.081 207.889 287.913 208.309 275.92C208.519 269.909 208.351 264.91 208.128 261.394C208.016 259.635 207.891 258.245 207.792 257.282C207.741 256.801 207.699 256.426 207.667 256.165C207.651 256.035 207.638 255.933 207.629 255.86C207.624 255.824 207.62 255.794 207.617 255.773C207.616 255.762 207.615 255.753 207.614 255.746C207.613 255.743 207.613 255.74 207.613 255.737C207.612 255.736 207.613 255.738 207.613 255.737C207.613 255.737 205.993 255.956 202.756 256.4ZM190.649 317.155C185.005 332.355 176.554 344.963 169.466 353.802C165.931 358.211 162.757 361.652 160.482 363.98C159.345 365.143 158.434 366.025 157.817 366.609C157.508 366.9 157.274 367.117 157.12 367.257C157.044 367.326 156.988 367.377 156.953 367.408C156.936 367.423 156.924 367.434 156.918 367.439C156.915 367.442 156.913 367.444 156.913 367.444C156.913 367.444 157.997 368.664 160.161 371.108C162.324 373.552 163.405 374.776 163.406 374.775C163.406 374.775 163.409 374.771 163.41 374.77C163.412 374.768 163.414 374.766 163.417 374.764C163.422 374.759 163.429 374.753 163.437 374.746C163.453 374.732 163.475 374.712 163.502 374.688C163.557 374.638 163.634 374.57 163.731 374.481C163.925 374.304 164.202 374.048 164.555 373.715C165.259 373.049 166.261 372.077 167.494 370.816C169.959 368.295 173.351 364.613 177.116 359.918C184.629 350.55 193.721 337.032 199.839 320.556L190.649 317.155Z" fill="#6A462F" style="fill:#6A462F;fill:color(display-p3 0.4157 0.2745 0.1843);fill-opacity:1;"/>
<path d="M155.049 384.875C203.266 402.72 263.712 359.667 290.06 288.713C316.408 217.76 298.679 145.774 250.463 127.929C202.246 110.083 141.799 153.136 115.452 224.09C89.1038 295.044 106.832 367.029 155.049 384.875Z" stroke="black" style="stroke:black;stroke-opacity:1;" stroke-width="2"/>
<path d="M202.756 256.402C202.756 256.402 198.506 225.622 210.269 193.946C222.031 162.27 245.351 141.694 245.351 141.694" stroke="black" style="stroke:black;stroke-opacity:1;" stroke-width="2" stroke-linecap="round" stroke-linejoin="round"/>
<path d="M202.756 256.402C202.756 256.402 207.005 287.182 195.243 318.857C183.48 350.533 160.16 371.11 160.16 371.11" stroke="black" style="stroke:black;stroke-opacity:1;" stroke-width="2" stroke-linecap="round" stroke-linejoin="round"/>
</g>
<g opacity="0.34" clip-path="url(#clip2_29_344)">
<path d="M1031.93 383.773C1073.63 421.664 1152.7 402.672 1208.55 341.353C1264.4 280.034 1275.87 199.608 1234.18 161.717C1192.48 123.826 1113.41 142.818 1057.56 204.137C1001.71 265.456 990.238 345.882 1031.93 383.773Z" fill="#A57939" style="fill:#A57939;fill:color(display-p3 0.6471 0.4745 0.2235);fill-opacity:1;"/>
<path fill-rule="evenodd" clip-rule="evenodd" d="M1033.17 384.902C1033.11 384.847 1033.18 384.749 1033.25 384.782C1076.57 403.608 1142.57 380.79 1191.92 326.61C1241.29 272.4 1257.8 204.562 1234.9 163.268C1234.72 162.936 1235.14 162.591 1235.42 162.846C1276.43 200.113 1264.4 280.034 1208.55 341.353C1152.7 402.672 1074.18 422.169 1033.17 384.902Z" fill="#6A462F" style="fill:#6A462F;fill:color(display-p3 0.4157 0.2745 0.1843);fill-opacity:1;"/>
<path fill-rule="evenodd" clip-rule="evenodd" d="M1042.77 371.876C1042.77 371.876 1059.35 305.827 1109.22 251.078C1158.91 196.516 1222.9 173.767 1223.34 173.612C1223.03 173.722 1191.09 185.102 1166.28 212.344C1141.35 239.719 1133.06 272.743 1133.06 272.743C1133.06 272.743 1124.76 305.768 1099.83 333.142C1074.9 360.517 1042.77 371.876 1042.77 371.876Z" fill="#6A462F" style="fill:#6A462F;fill:color(display-p3 0.4157 0.2745 0.1843);fill-opacity:1;"/>
<path d="M1042.77 371.876L1037.56 370.566C1037.08 372.483 1037.69 374.51 1039.16 375.841C1040.62 377.172 1042.7 377.591 1044.56 376.932L1042.77 371.876ZM1223.34 173.612L1225.14 178.665C1227.94 177.674 1229.39 174.609 1228.4 171.817C1227.4 169.027 1224.33 167.567 1221.54 168.557L1223.34 173.612ZM1105.24 247.467C1079.81 275.393 1062.91 306.133 1052.38 329.828C1047.11 341.689 1043.42 351.823 1041.04 359.012C1039.85 362.607 1038.99 365.468 1038.42 367.444C1038.13 368.432 1037.92 369.199 1037.78 369.725C1037.71 369.988 1037.66 370.192 1037.62 370.333C1037.6 370.403 1037.59 370.458 1037.58 370.497C1037.57 370.517 1037.57 370.533 1037.57 370.544C1037.56 370.55 1037.56 370.555 1037.56 370.558C1037.56 370.56 1037.56 370.566 1037.56 370.566C1037.56 370.566 1039.3 371.001 1042.77 371.876C1046.24 372.748 1047.98 373.185 1047.98 373.187C1047.98 373.182 1047.98 373.17 1047.98 373.157C1047.99 373.132 1048 373.092 1048.01 373.036C1048.04 372.923 1048.09 372.749 1048.15 372.515C1048.28 372.048 1048.47 371.342 1048.74 370.417C1049.27 368.567 1050.09 365.84 1051.24 362.388C1053.52 355.481 1057.09 345.681 1062.2 334.187C1072.43 311.17 1088.76 281.511 1113.19 254.688L1105.24 247.467ZM1221.54 168.557C1220.86 168.799 1155.84 191.909 1105.24 247.467L1113.19 254.688C1161.98 201.121 1224.95 178.733 1225.14 178.665L1221.54 168.557ZM1170.25 215.955C1182.16 202.883 1195.84 193.558 1206.64 187.476C1217.43 181.402 1225.19 178.649 1225.14 178.665L1221.54 168.557C1220.99 168.754 1188.02 180.497 1162.31 208.733L1170.25 215.955ZM1133.06 272.743C1136.53 273.616 1138.26 274.051 1138.26 274.052C1138.27 274.044 1138.27 274.024 1138.28 273.999C1138.29 273.95 1138.31 273.87 1138.34 273.761C1138.4 273.542 1138.49 273.204 1138.62 272.757C1138.88 271.863 1139.28 270.534 1139.84 268.844C1140.96 265.461 1142.71 260.644 1145.23 254.988C1150.26 243.65 1158.29 229.091 1170.25 215.955L1162.31 208.733C1149.34 222.972 1140.75 238.612 1135.41 250.629C1132.73 256.652 1130.86 261.802 1129.64 265.467C1129.04 267.3 1128.59 268.764 1128.3 269.784C1128.15 270.293 1128.04 270.692 1127.97 270.97C1127.93 271.109 1127.9 271.218 1127.88 271.296C1127.87 271.335 1127.86 271.366 1127.86 271.389C1127.86 271.4 1127.85 271.41 1127.85 271.418C1127.85 271.421 1127.85 271.424 1127.85 271.427C1127.85 271.426 1127.85 271.428 1127.85 271.427C1127.85 271.427 1129.58 271.869 1133.06 272.743ZM1133.06 272.743C1129.58 271.869 1127.85 271.427 1127.85 271.427C1127.85 271.427 1127.85 271.433 1127.85 271.438C1127.84 271.446 1127.84 271.463 1127.83 271.488C1127.82 271.537 1127.8 271.616 1127.77 271.726C1127.71 271.945 1127.62 272.282 1127.49 272.73C1127.23 273.623 1126.83 274.952 1126.27 276.643C1125.15 280.026 1123.4 284.843 1120.89 290.498C1115.85 301.837 1107.82 316.395 1095.86 329.532L1103.81 336.754C1116.77 322.515 1125.36 306.875 1130.7 294.857C1133.38 288.835 1135.26 283.684 1136.47 280.02C1137.08 278.187 1137.52 276.722 1137.81 275.703C1137.96 275.193 1138.07 274.795 1138.14 274.517C1138.18 274.378 1138.21 274.269 1138.23 274.191C1138.24 274.152 1138.25 274.121 1138.25 274.098C1138.26 274.086 1138.26 274.077 1138.26 274.069C1138.26 274.065 1138.26 274.062 1138.26 274.06C1138.26 274.058 1138.26 274.06 1138.26 274.06C1138.26 274.06 1136.53 273.618 1133.06 272.743ZM1095.86 329.532C1083.89 342.668 1070.14 352.019 1059.32 358.099C1053.92 361.131 1049.28 363.329 1046.02 364.762C1044.38 365.479 1043.1 366.002 1042.23 366.343C1041.8 366.512 1041.47 366.637 1041.26 366.716C1041.15 366.755 1041.07 366.783 1041.02 366.801C1041 366.81 1040.98 366.815 1040.98 366.818C1040.97 366.82 1040.97 366.821 1040.97 366.821C1040.97 366.821 1041.57 368.505 1042.77 371.876C1043.97 375.246 1044.56 376.933 1044.56 376.932C1044.56 376.932 1044.57 376.929 1044.57 376.929C1044.57 376.928 1044.58 376.927 1044.58 376.926C1044.59 376.923 1044.6 376.92 1044.61 376.915C1044.63 376.908 1044.66 376.897 1044.7 376.883C1044.77 376.855 1044.88 376.817 1045.01 376.767C1045.28 376.666 1045.67 376.519 1046.17 376.326C1047.15 375.937 1048.57 375.36 1050.34 374.583C1053.88 373.031 1058.83 370.679 1064.59 367.449C1076.06 361.006 1090.84 350.992 1103.81 336.754L1095.86 329.532Z" fill="#6A462F" style="fill:#6A462F;fill:color(display-p3 0.4157 0.2745 0.1843);fill-opacity:1;"/>
<path d="M1031.93 383.773C1073.63 421.664 1152.7 402.672 1208.55 341.353C1264.4 280.034 1275.87 199.608 1234.18 161.717C1192.48 123.826 1113.41 142.818 1057.56 204.137C1001.71 265.456 990.238 345.882 1031.93 383.773Z" stroke="black" style="stroke:black;stroke-opacity:1;" stroke-width="2"/>
<path d="M1133.05 272.745C1133.05 272.745 1141.35 239.721 1166.28 212.346C1191.21 184.971 1223.34 173.613 1223.34 173.613" stroke="black" style="stroke:black;stroke-opacity:1;" stroke-width="2" stroke-linecap="round" stroke-linejoin="round"/>
<path d="M1133.05 272.745C1133.05 272.745 1124.76 305.769 1099.83 333.144C1074.9 360.519 1042.77 371.877 1042.77 371.877" stroke="black" style="stroke:black;stroke-opacity:1;" stroke-width="2" stroke-linecap="round" stroke-linejoin="round"/>
<path d="M1031.93 383.773C1073.63 421.664 1152.7 402.672 1208.55 341.353C1264.4 280.034 1275.87 199.608 1234.18 161.717C1192.48 123.826 1113.41 142.818 1057.56 204.137C1001.71 265.456 990.238 345.882 1031.93 383.773Z" fill="#A57939" style="fill:#A57939;fill:color(display-p3 0.6471 0.4745 0.2235);fill-opacity:1;"/>
<path fill-rule="evenodd" clip-rule="evenodd" d="M1033.17 384.902C1033.11 384.847 1033.18 384.749 1033.25 384.782C1076.57 403.608 1142.57 380.79 1191.92 326.61C1241.29 272.4 1257.8 204.562 1234.9 163.268C1234.72 162.936 1235.14 162.591 1235.42 162.846C1276.43 200.113 1264.4 280.034 1208.55 341.353C1152.7 402.672 1074.18 422.169 1033.17 384.902Z" fill="#6A462F" style="fill:#6A462F;fill:color(display-p3 0.4157 0.2745 0.1843);fill-opacity:1;"/>
<path fill-rule="evenodd" clip-rule="evenodd" d="M1042.77 371.876C1042.77 371.876 1059.35 305.827 1109.22 251.078C1158.91 196.516 1222.9 173.767 1223.34 173.612C1223.03 173.722 1191.09 185.102 1166.28 212.344C1141.35 239.719 1133.06 272.743 1133.06 272.743C1133.06 272.743 1124.76 305.768 1099.83 333.142C1074.9 360.517 1042.77 371.876 1042.77 371.876Z" fill="#6A462F" style="fill:#6A462F;fill:color(display-p3 0.4157 0.2745 0.1843);fill-opacity:1;"/>
<path d="M1042.77 371.876L1037.56 370.566C1037.08 372.483 1037.69 374.51 1039.16 375.841C1040.62 377.172 1042.7 377.591 1044.56 376.932L1042.77 371.876ZM1223.34 173.612L1225.14 178.665C1227.94 177.674 1229.39 174.609 1228.4 171.817C1227.4 169.027 1224.33 167.567 1221.54 168.557L1223.34 173.612ZM1105.24 247.467C1079.81 275.393 1062.91 306.133 1052.38 329.828C1047.11 341.689 1043.42 351.823 1041.04 359.012C1039.85 362.607 1038.99 365.468 1038.42 367.444C1038.13 368.432 1037.92 369.199 1037.78 369.725C1037.71 369.988 1037.66 370.192 1037.62 370.333C1037.6 370.403 1037.59 370.458 1037.58 370.497C1037.57 370.517 1037.57 370.533 1037.57 370.544C1037.56 370.55 1037.56 370.555 1037.56 370.558C1037.56 370.56 1037.56 370.566 1037.56 370.566C1037.56 370.566 1039.3 371.001 1042.77 371.876C1046.24 372.748 1047.98 373.185 1047.98 373.187C1047.98 373.182 1047.98 373.17 1047.98 373.157C1047.99 373.132 1048 373.092 1048.01 373.036C1048.04 372.923 1048.09 372.749 1048.15 372.515C1048.28 372.048 1048.47 371.342 1048.74 370.417C1049.27 368.567 1050.09 365.84 1051.24 362.388C1053.52 355.481 1057.09 345.681 1062.2 334.187C1072.43 311.17 1088.76 281.511 1113.19 254.688L1105.24 247.467ZM1221.54 168.557C1220.86 168.799 1155.84 191.909 1105.24 247.467L1113.19 254.688C1161.98 201.121 1224.95 178.733 1225.14 178.665L1221.54 168.557ZM1170.25 215.955C1182.16 202.883 1195.84 193.558 1206.64 187.476C1217.43 181.402 1225.19 178.649 1225.14 178.665L1221.54 168.557C1220.99 168.754 1188.02 180.497 1162.31 208.733L1170.25 215.955ZM1133.06 272.743C1136.53 273.616 1138.26 274.051 1138.26 274.052C1138.27 274.044 1138.27 274.024 1138.28 273.999C1138.29 273.95 1138.31 273.87 1138.34 273.761C1138.4 273.542 1138.49 273.204 1138.62 272.757C1138.88 271.863 1139.28 270.534 1139.84 268.844C1140.96 265.461 1142.71 260.644 1145.23 254.988C1150.26 243.65 1158.29 229.091 1170.25 215.955L1162.31 208.733C1149.34 222.972 1140.75 238.612 1135.41 250.629C1132.73 256.652 1130.86 261.802 1129.64 265.467C1129.04 267.3 1128.59 268.764 1128.3 269.784C1128.15 270.293 1128.04 270.692 1127.97 270.97C1127.93 271.109 1127.9 271.218 1127.88 271.296C1127.87 271.335 1127.86 271.366 1127.86 271.389C1127.86 271.4 1127.85 271.41 1127.85 271.418C1127.85 271.421 1127.85 271.424 1127.85 271.427C1127.85 271.426 1127.85 271.428 1127.85 271.427C1127.85 271.427 1129.58 271.869 1133.06 272.743ZM1133.06 272.743C1129.58 271.869 1127.85 271.427 1127.85 271.427C1127.85 271.427 1127.85 271.433 1127.85 271.438C1127.84 271.446 1127.84 271.463 1127.83 271.488C1127.82 271.537 1127.8 271.616 1127.77 271.726C1127.71 271.945 1127.62 272.282 1127.49 272.73C1127.23 273.623 1126.83 274.952 1126.27 276.643C1125.15 280.026 1123.4 284.843 1120.89 290.498C1115.85 301.837 1107.82 316.395 1095.86 329.532L1103.81 336.754C1116.77 322.515 1125.36 306.875 1130.7 294.857C1133.38 288.835 1135.26 283.684 1136.47 280.02C1137.08 278.187 1137.52 276.722 1137.81 275.703C1137.96 275.193 1138.07 274.795 1138.14 274.517C1138.18 274.378 1138.21 274.269 1138.23 274.191C1138.24 274.152 1138.25 274.121 1138.25 274.098C1138.26 274.086 1138.26 274.077 1138.26 274.069C1138.26 274.065 1138.26 274.062 1138.26 274.06C1138.26 274.058 1138.26 274.06 1138.26 274.06C1138.26 274.06 1136.53 273.618 1133.06 272.743ZM1095.86 329.532C1083.89 342.668 1070.14 352.019 1059.32 358.099C1053.92 361.131 1049.28 363.329 1046.02 364.762C1044.38 365.479 1043.1 366.002 1042.23 366.343C1041.8 366.512 1041.47 366.637 1041.26 366.716C1041.15 366.755 1041.07 366.783 1041.02 366.801C1041 366.81 1040.98 366.815 1040.98 366.818C1040.97 366.82 1040.97 366.821 1040.97 366.821C1040.97 366.821 1041.57 368.505 1042.77 371.876C1043.97 375.246 1044.56 376.933 1044.56 376.932C1044.56 376.932 1044.57 376.929 1044.57 376.929C1044.57 376.928 1044.58 376.927 1044.58 376.926C1044.59 376.923 1044.6 376.92 1044.61 376.915C1044.63 376.908 1044.66 376.897 1044.7 376.883C1044.77 376.855 1044.88 376.817 1045.01 376.767C1045.28 376.666 1045.67 376.519 1046.17 376.326C1047.15 375.937 1048.57 375.36 1050.34 374.583C1053.88 373.031 1058.83 370.679 1064.59 367.449C1076.06 361.006 1090.84 350.992 1103.81 336.754L1095.86 329.532Z" fill="#6A462F" style="fill:#6A462F;fill:color(display-p3 0.4157 0.2745 0.1843);fill-opacity:1;"/>
<path d="M1031.93 383.773C1073.63 421.664 1152.7 402.672 1208.55 341.353C1264.4 280.034 1275.87 199.608 1234.18 161.717C1192.48 123.826 1113.41 142.818 1057.56 204.137C1001.71 265.456 990.238 345.882 1031.93 383.773Z" stroke="black" style="stroke:black;stroke-opacity:1;" stroke-width="2"/>
<path d="M1133.05 272.745C1133.05 272.745 1141.35 239.721 1166.28 212.346C1191.21 184.971 1223.34 173.613 1223.34 173.613" stroke="black" style="stroke:black;stroke-opacity:1;" stroke-width="2" stroke-linecap="round" stroke-linejoin="round"/>
<path d="M1133.05 272.745C1133.05 272.745 1124.76 305.769 1099.83 333.144C1074.9 360.519 1042.77 371.877 1042.77 371.877" stroke="black" style="stroke:black;stroke-opacity:1;" stroke-width="2" stroke-linecap="round" stroke-linejoin="round"/>
</g>
<g opacity="0.34" clip-path="url(#clip3_29_344)">
<path d="M50.2419 837.27C21.946 885.989 57.1118 959.314 128.787 1001.05C200.462 1042.78 281.505 1037.12 309.801 988.401C338.097 939.683 302.931 866.357 231.256 824.624C159.581 782.89 78.5379 788.552 50.2419 837.27Z" fill="#A57939" style="fill:#A57939;fill:color(display-p3 0.6471 0.4745 0.2235);fill-opacity:1;"/>
<path fill-rule="evenodd" clip-rule="evenodd" d="M49.399 838.722C49.4397 838.652 49.5491 838.693 49.533 838.773C40.2177 885.075 76.3818 944.821 139.712 981.696C203.078 1018.59 272.869 1020.5 308.436 989.435C308.722 989.186 309.148 989.525 308.958 989.852C281.128 1037.77 200.463 1042.78 128.787 1001.05C57.1117 959.314 21.5688 886.638 49.399 838.722Z" fill="#6A462F" style="fill:#6A462F;fill:color(display-p3 0.4157 0.2745 0.1843);fill-opacity:1;"/>
<path fill-rule="evenodd" clip-rule="evenodd" d="M64.1487 845.368C64.1487 845.368 132.207 847.718 196.203 884.98C259.98 922.115 295.654 979.91 295.897 980.304C295.725 980.025 277.894 951.184 246.05 932.643C214.052 914.012 180.023 912.837 180.023 912.837C180.023 912.837 145.994 911.662 113.996 893.031C81.9983 874.399 64.1487 845.368 64.1487 845.368Z" fill="#6A462F" style="fill:#6A462F;fill:color(display-p3 0.4157 0.2745 0.1843);fill-opacity:1;"/>
<path d="M64.1487 845.368L64.3354 840C62.3603 839.933 60.5077 840.958 59.5137 842.669C58.5198 844.38 58.5463 846.499 59.582 848.185L64.1487 845.368ZM295.897 980.304L291.334 983.126C292.889 985.649 296.193 986.431 298.713 984.873C301.233 983.314 302.015 980.006 300.461 977.483L295.897 980.304ZM198.899 880.338C166.257 861.331 132.656 851.266 107.278 845.944C94.5745 843.281 83.8915 841.797 76.3633 840.979C72.5987 840.569 69.6196 840.326 67.5689 840.184C66.543 840.114 65.7488 840.068 65.2044 840.04C64.9321 840.026 64.7217 840.017 64.5765 840.01C64.5039 840.007 64.4468 840.005 64.4068 840.004C64.3867 840.003 64.3704 840.002 64.3589 840.002C64.3529 840.001 64.3479 840.002 64.3438 840.001C64.3419 840.001 64.3364 840.001 64.3354 840C64.3354 840 64.2756 841.79 64.1487 845.368C64.0242 848.946 63.9613 850.735 63.9599 850.734C63.9647 850.735 63.9772 850.735 63.9899 850.735C64.0157 850.737 64.0577 850.738 64.1157 850.741C64.2314 850.745 64.4114 850.754 64.653 850.766C65.1366 850.791 65.8673 850.832 66.8277 850.898C68.7483 851.031 71.5868 851.262 75.2022 851.655C82.435 852.442 92.7665 853.875 105.076 856.456C129.727 861.626 162.153 871.367 193.506 889.623L198.899 880.338ZM300.461 977.483C300.081 976.867 263.839 918.15 198.899 880.338L193.506 889.623C256.12 926.08 291.227 982.952 291.334 983.126L300.461 977.483ZM243.354 937.286C258.634 946.183 270.622 957.599 278.836 966.884C287.038 976.155 291.36 983.169 291.334 983.126L300.461 977.483C300.152 976.983 281.752 947.218 248.747 928L243.354 937.286ZM180.023 912.837C179.899 916.415 179.838 918.204 179.837 918.204C179.846 918.204 179.866 918.205 179.892 918.206C179.942 918.208 180.025 918.212 180.138 918.217C180.364 918.229 180.714 918.249 181.178 918.281C182.106 918.345 183.489 918.457 185.26 918.65C188.803 919.035 193.88 919.739 199.937 921.009C212.081 923.556 227.999 928.345 243.354 937.286L248.747 928C232.104 918.31 215.009 913.196 202.139 910.497C195.688 909.144 190.259 908.39 186.421 907.972C184.501 907.763 182.977 907.639 181.919 907.566C181.39 907.53 180.977 907.506 180.69 907.491C180.546 907.483 180.433 907.479 180.353 907.475C180.313 907.473 180.281 907.472 180.257 907.471C180.245 907.471 180.235 907.47 180.227 907.47C180.223 907.47 180.22 907.47 180.217 907.47C180.219 907.47 180.216 907.47 180.217 907.47C180.217 907.47 180.15 909.259 180.023 912.837ZM180.023 912.837C180.15 909.259 180.217 907.47 180.217 907.47C180.217 907.47 180.211 907.47 180.207 907.47C180.198 907.47 180.181 907.469 180.155 907.468C180.104 907.466 180.022 907.462 179.909 907.456C179.682 907.445 179.333 907.425 178.869 907.393C177.941 907.329 176.557 907.217 174.787 907.024C171.244 906.638 166.167 905.935 160.11 904.665C147.966 902.118 132.047 897.329 116.693 888.388L111.3 897.674C127.943 907.364 145.037 912.478 157.908 915.177C164.358 916.529 169.788 917.284 173.625 917.701C175.545 917.91 177.069 918.035 178.128 918.108C178.657 918.144 179.07 918.168 179.357 918.183C179.501 918.19 179.614 918.195 179.694 918.199C179.734 918.2 179.766 918.202 179.79 918.202C179.802 918.203 179.812 918.203 179.819 918.204C179.823 918.204 179.826 918.204 179.829 918.204C179.831 918.204 179.828 918.204 179.829 918.204C179.829 918.204 179.897 916.415 180.023 912.837ZM116.693 888.388C101.338 879.448 89.3079 867.963 81.0917 858.655C76.9934 854.012 73.8716 849.942 71.7848 847.049C70.7419 845.604 69.9601 844.455 69.4454 843.68C69.1884 843.292 68.9982 842.997 68.8762 842.806C68.8152 842.71 68.7713 842.641 68.7442 842.597C68.7307 842.576 68.7218 842.561 68.717 842.554C68.7144 842.55 68.713 842.548 68.7129 842.547C68.7129 842.547 67.1923 843.488 64.1487 845.368C61.1042 847.246 59.5808 848.183 59.582 848.185C59.582 848.185 59.5858 848.189 59.5861 848.19C59.5879 848.193 59.5894 848.195 59.5912 848.199C59.5955 848.205 59.6005 848.214 59.6071 848.224C59.6195 848.244 59.6366 848.271 59.6577 848.305C59.7007 848.373 59.7605 848.469 59.8381 848.59C59.9932 848.833 60.2179 849.181 60.5109 849.623C61.098 850.508 61.9599 851.773 63.0908 853.34C65.3509 856.474 68.691 860.825 73.0556 865.77C81.7637 875.635 94.6563 887.983 111.3 897.674L116.693 888.388Z" fill="#6A462F" style="fill:#6A462F;fill:color(display-p3 0.4157 0.2745 0.1843);fill-opacity:1;"/>
<path d="M50.2419 837.27C21.946 885.989 57.1118 959.314 128.787 1001.05C200.462 1042.78 281.505 1037.12 309.801 988.401C338.097 939.683 302.931 866.357 231.256 824.624C159.581 782.89 78.5379 788.552 50.2419 837.27Z" stroke="black" style="stroke:black;stroke-opacity:1;" stroke-width="2"/>
<path d="M180.021 912.836C180.021 912.836 214.05 914.011 246.048 932.642C278.047 951.273 295.896 980.305 295.896 980.305" stroke="black" style="stroke:black;stroke-opacity:1;" stroke-width="2" stroke-linecap="round" stroke-linejoin="round"/>
<path d="M180.021 912.836C180.021 912.836 145.993 911.661 113.995 893.03C81.9964 874.398 64.1468 845.367 64.1468 845.367" stroke="black" style="stroke:black;stroke-opacity:1;" stroke-width="2" stroke-linecap="round" stroke-linejoin="round"/>
<path d="M50.2419 837.27C21.946 885.989 57.1118 959.314 128.787 1001.05C200.462 1042.78 281.505 1037.12 309.801 988.401C338.097 939.683 302.931 866.357 231.256 824.624C159.581 782.89 78.5379 788.552 50.2419 837.27Z" fill="#A57939" style="fill:#A57939;fill:color(display-p3 0.6471 0.4745 0.2235);fill-opacity:1;"/>
<path fill-rule="evenodd" clip-rule="evenodd" d="M49.399 838.722C49.4397 838.652 49.5491 838.693 49.533 838.773C40.2177 885.075 76.3818 944.821 139.712 981.696C203.078 1018.59 272.869 1020.5 308.436 989.435C308.722 989.186 309.148 989.525 308.958 989.852C281.128 1037.77 200.463 1042.78 128.787 1001.05C57.1117 959.314 21.5688 886.638 49.399 838.722Z" fill="#6A462F" style="fill:#6A462F;fill:color(display-p3 0.4157 0.2745 0.1843);fill-opacity:1;"/>
<path fill-rule="evenodd" clip-rule="evenodd" d="M64.1487 845.368C64.1487 845.368 132.207 847.718 196.203 884.98C259.98 922.115 295.654 979.91 295.897 980.304C295.725 980.025 277.894 951.184 246.05 932.643C214.052 914.012 180.023 912.837 180.023 912.837C180.023 912.837 145.994 911.662 113.996 893.031C81.9983 874.399 64.1487 845.368 64.1487 845.368Z" fill="#6A462F" style="fill:#6A462F;fill:color(display-p3 0.4157 0.2745 0.1843);fill-opacity:1;"/>
<path d="M64.1487 845.368L64.3354 840C62.3603 839.933 60.5077 840.958 59.5137 842.669C58.5198 844.38 58.5463 846.499 59.582 848.185L64.1487 845.368ZM295.897 980.304L291.334 983.126C292.889 985.649 296.193 986.431 298.713 984.873C301.233 983.314 302.015 980.006 300.461 977.483L295.897 980.304ZM198.899 880.338C166.257 861.331 132.656 851.266 107.278 845.944C94.5745 843.281 83.8915 841.797 76.3633 840.979C72.5987 840.569 69.6196 840.326 67.5689 840.184C66.543 840.114 65.7488 840.068 65.2044 840.04C64.9321 840.026 64.7217 840.017 64.5765 840.01C64.5039 840.007 64.4468 840.005 64.4068 840.004C64.3867 840.003 64.3704 840.002 64.3589 840.002C64.3529 840.001 64.3479 840.002 64.3438 840.001C64.3419 840.001 64.3364 840.001 64.3354 840C64.3354 840 64.2756 841.79 64.1487 845.368C64.0242 848.946 63.9613 850.735 63.9599 850.734C63.9647 850.735 63.9772 850.735 63.9899 850.735C64.0157 850.737 64.0577 850.738 64.1157 850.741C64.2314 850.745 64.4114 850.754 64.653 850.766C65.1366 850.791 65.8673 850.832 66.8277 850.898C68.7483 851.031 71.5868 851.262 75.2022 851.655C82.435 852.442 92.7665 853.875 105.076 856.456C129.727 861.626 162.153 871.367 193.506 889.623L198.899 880.338ZM300.461 977.483C300.081 976.867 263.839 918.15 198.899 880.338L193.506 889.623C256.12 926.08 291.227 982.952 291.334 983.126L300.461 977.483ZM243.354 937.286C258.634 946.183 270.622 957.599 278.836 966.884C287.038 976.155 291.36 983.169 291.334 983.126L300.461 977.483C300.152 976.983 281.752 947.218 248.747 928L243.354 937.286ZM180.023 912.837C179.899 916.415 179.838 918.204 179.837 918.204C179.846 918.204 179.866 918.205 179.892 918.206C179.942 918.208 180.025 918.212 180.138 918.217C180.364 918.229 180.714 918.249 181.178 918.281C182.106 918.345 183.489 918.457 185.26 918.65C188.803 919.035 193.88 919.739 199.937 921.009C212.081 923.556 227.999 928.345 243.354 937.286L248.747 928C232.104 918.31 215.009 913.196 202.139 910.497C195.688 909.144 190.259 908.39 186.421 907.972C184.501 907.763 182.977 907.639 181.919 907.566C181.39 907.53 180.977 907.506 180.69 907.491C180.546 907.483 180.433 907.479 180.353 907.475C180.313 907.473 180.281 907.472 180.257 907.471C180.245 907.471 180.235 907.47 180.227 907.47C180.223 907.47 180.22 907.47 180.217 907.47C180.219 907.47 180.216 907.47 180.217 907.47C180.217 907.47 180.15 909.259 180.023 912.837ZM180.023 912.837C180.15 909.259 180.217 907.47 180.217 907.47C180.217 907.47 180.211 907.47 180.207 907.47C180.198 907.47 180.181 907.469 180.155 907.468C180.104 907.466 180.022 907.462 179.909 907.456C179.682 907.445 179.333 907.425 178.869 907.393C177.941 907.329 176.557 907.217 174.787 907.024C171.244 906.638 166.167 905.935 160.11 904.665C147.966 902.118 132.047 897.329 116.693 888.388L111.3 897.674C127.943 907.364 145.037 912.478 157.908 915.177C164.358 916.529 169.788 917.284 173.625 917.701C175.545 917.91 177.069 918.035 178.128 918.108C178.657 918.144 179.07 918.168 179.357 918.183C179.501 918.19 179.614 918.195 179.694 918.199C179.734 918.2 179.766 918.202 179.79 918.202C179.802 918.203 179.812 918.203 179.819 918.204C179.823 918.204 179.826 918.204 179.829 918.204C179.831 918.204 179.828 918.204 179.829 918.204C179.829 918.204 179.897 916.415 180.023 912.837ZM116.693 888.388C101.338 879.448 89.3079 867.963 81.0917 858.655C76.9934 854.012 73.8716 849.942 71.7848 847.049C70.7419 845.604 69.9601 844.455 69.4454 843.68C69.1884 843.292 68.9982 842.997 68.8762 842.806C68.8152 842.71 68.7713 842.641 68.7442 842.597C68.7307 842.576 68.7218 842.561 68.717 842.554C68.7144 842.55 68.713 842.548 68.7129 842.547C68.7129 842.547 67.1923 843.488 64.1487 845.368C61.1042 847.246 59.5808 848.183 59.582 848.185C59.582 848.185 59.5858 848.189 59.5861 848.19C59.5879 848.193 59.5894 848.195 59.5912 848.199C59.5955 848.205 59.6005 848.214 59.6071 848.224C59.6195 848.244 59.6366 848.271 59.6577 848.305C59.7007 848.373 59.7605 848.469 59.8381 848.59C59.9932 848.833 60.2179 849.181 60.5109 849.623C61.098 850.508 61.9599 851.773 63.0908 853.34C65.3509 856.474 68.691 860.825 73.0556 865.77C81.7637 875.635 94.6563 887.983 111.3 897.674L116.693 888.388Z" fill="#6A462F" style="fill:#6A462F;fill:color(display-p3 0.4157 0.2745 0.1843);fill-opacity:1;"/>
<path d="M50.2419 837.27C21.946 885.989 57.1118 959.314 128.787 1001.05C200.462 1042.78 281.505 1037.12 309.801 988.401C338.097 939.683 302.931 866.357 231.256 824.624C159.581 782.89 78.5379 788.552 50.2419 837.27Z" stroke="black" style="stroke:black;stroke-opacity:1;" stroke-width="2"/>
<path d="M180.021 912.836C180.021 912.836 214.05 914.011 246.048 932.642C278.047 951.273 295.896 980.305 295.896 980.305" stroke="black" style="stroke:black;stroke-opacity:1;" stroke-width="2" stroke-linecap="round" stroke-linejoin="round"/>
<path d="M180.021 912.836C180.021 912.836 145.993 911.661 113.995 893.029C81.9964 874.398 64.1468 845.367 64.1468 845.367" stroke="black" style="stroke:black;stroke-opacity:1;" stroke-width="2" stroke-linecap="round" stroke-linejoin="round"/>
</g>
<g opacity="0.34" clip-path="url(#clip4_29_344)">
<path d="M1145 748.435C1093.48 725.636 1024.44 768.609 990.793 844.419C957.147 920.228 971.638 1000.17 1023.16 1022.96C1074.68 1045.76 1143.72 1002.79 1177.36 926.98C1211.01 851.171 1196.52 771.234 1145 748.435Z" fill="#A57939" style="fill:#A57939;fill:color(display-p3 0.6471 0.4745 0.2235);fill-opacity:1;"/>
<path fill-rule="evenodd" clip-rule="evenodd" d="M1143.46 747.756C1143.54 747.789 1143.51 747.902 1143.43 747.895C1096.38 743.698 1040.95 786.179 1011.22 853.162C981.478 920.182 987.218 989.763 1021.98 1021.72C1022.26 1021.98 1021.97 1022.44 1021.62 1022.28C970.95 999.861 957.147 920.228 990.793 844.419C1024.44 768.609 1092.79 725.332 1143.46 747.756Z" fill="#6A462F" style="fill:#6A462F;fill:color(display-p3 0.4157 0.2745 0.1843);fill-opacity:1;"/>
<path fill-rule="evenodd" clip-rule="evenodd" d="M1138.47 763.144C1138.47 763.144 1143.58 831.051 1113.54 898.738C1083.6 966.193 1030.05 1007.97 1029.69 1008.26C1029.94 1008.06 1056.66 987.178 1071.61 953.498C1086.63 919.655 1084.08 885.701 1084.08 885.701C1084.08 885.701 1081.52 851.748 1096.54 817.905C1111.57 784.061 1138.47 763.144 1138.47 763.144Z" fill="#6A462F" style="fill:#6A462F;fill:color(display-p3 0.4157 0.2745 0.1843);fill-opacity:1;"/>
<path d="M1138.47 763.144L1143.83 762.742C1143.68 760.772 1142.46 759.042 1140.65 758.241C1138.84 757.441 1136.73 757.699 1135.17 758.912L1138.47 763.144ZM1029.69 1008.26L1026.38 1004.03C1024.04 1005.85 1023.63 1009.22 1025.45 1011.56C1027.28 1013.89 1030.65 1014.31 1032.99 1012.49L1029.69 1008.26ZM1118.45 900.91C1133.77 866.385 1140.1 831.885 1142.61 806.078C1143.87 793.159 1144.18 782.378 1144.17 774.805C1144.16 771.018 1144.08 768.031 1144 765.977C1143.96 764.949 1143.91 764.155 1143.88 763.611C1143.87 763.338 1143.85 763.128 1143.84 762.983C1143.84 762.911 1143.83 762.854 1143.83 762.814C1143.83 762.794 1143.83 762.777 1143.83 762.766C1143.83 762.76 1143.83 762.755 1143.83 762.751C1143.83 762.749 1143.83 762.743 1143.83 762.742C1143.83 762.742 1142.04 762.879 1138.47 763.144C1134.9 763.411 1133.12 763.544 1133.12 763.543C1133.12 763.548 1133.12 763.56 1133.12 763.573C1133.12 763.599 1133.12 763.641 1133.13 763.698C1133.13 763.814 1133.15 763.994 1133.16 764.235C1133.19 764.719 1133.23 765.45 1133.27 766.411C1133.34 768.335 1133.42 771.182 1133.43 774.819C1133.44 782.094 1133.14 792.52 1131.92 805.039C1129.48 830.107 1123.34 863.403 1108.63 896.565L1118.45 900.91ZM1032.99 1012.49C1033.56 1012.04 1087.96 969.596 1118.45 900.91L1108.63 896.565C1079.24 962.79 1026.54 1003.91 1026.38 1004.03L1032.99 1012.49ZM1066.7 951.326C1059.53 967.487 1049.49 980.652 1041.16 989.832C1032.84 998.999 1026.34 1004.06 1026.38 1004.03L1032.99 1012.49C1033.45 1012.12 1061.03 990.58 1076.52 955.671L1066.7 951.326ZM1084.08 885.701C1080.51 885.969 1078.72 886.104 1078.72 886.103C1078.72 886.112 1078.72 886.132 1078.73 886.158C1078.73 886.208 1078.74 886.29 1078.74 886.404C1078.76 886.63 1078.77 886.98 1078.79 887.444C1078.83 888.374 1078.87 889.761 1078.87 891.542C1078.88 895.106 1078.73 900.23 1078.13 906.389C1076.93 918.739 1073.91 935.085 1066.7 951.326L1076.52 955.671C1084.33 938.068 1087.55 920.517 1088.82 907.429C1089.46 900.869 1089.62 895.389 1089.61 891.529C1089.61 889.598 1089.57 888.069 1089.52 887.009C1089.5 886.479 1089.48 886.066 1089.46 885.779C1089.46 885.635 1089.45 885.523 1089.44 885.442C1089.44 885.403 1089.44 885.37 1089.44 885.347C1089.44 885.335 1089.43 885.325 1089.43 885.317C1089.43 885.314 1089.43 885.31 1089.43 885.308C1089.43 885.309 1089.43 885.306 1089.43 885.308C1089.43 885.308 1087.65 885.436 1084.08 885.701ZM1084.08 885.701C1087.65 885.436 1089.43 885.308 1089.43 885.308C1089.43 885.308 1089.43 885.302 1089.43 885.297C1089.43 885.288 1089.43 885.271 1089.43 885.245C1089.43 885.195 1089.42 885.113 1089.41 884.999C1089.4 884.773 1089.38 884.423 1089.36 883.959C1089.32 883.029 1089.29 881.642 1089.28 879.861C1089.28 876.297 1089.42 871.173 1090.02 865.013C1091.23 852.664 1094.25 836.317 1101.45 820.077L1091.63 815.732C1083.82 833.335 1080.61 850.886 1079.33 863.974C1078.69 870.534 1078.54 876.014 1078.54 879.874C1078.54 881.805 1078.59 883.334 1078.63 884.394C1078.65 884.924 1078.67 885.337 1078.69 885.624C1078.7 885.768 1078.71 885.88 1078.71 885.96C1078.71 886 1078.72 886.032 1078.72 886.056C1078.72 886.068 1078.72 886.078 1078.72 886.086C1078.72 886.089 1078.72 886.093 1078.72 886.095C1078.72 886.097 1078.72 886.095 1078.72 886.095C1078.72 886.095 1080.51 885.967 1084.08 885.701ZM1101.45 820.077C1108.66 803.837 1118.76 790.623 1127.12 781.438C1131.28 776.857 1134.99 773.309 1137.63 770.918C1138.96 769.723 1140.01 768.821 1140.73 768.224C1141.09 767.926 1141.36 767.705 1141.53 767.563C1141.62 767.492 1141.69 767.44 1141.73 767.409C1141.75 767.393 1141.76 767.383 1141.77 767.377C1141.77 767.374 1141.77 767.372 1141.77 767.372C1141.77 767.372 1140.67 765.964 1138.47 763.144C1136.27 760.323 1135.17 758.911 1135.17 758.912C1135.17 758.912 1135.17 758.917 1135.17 758.917C1135.16 758.919 1135.16 758.921 1135.16 758.923C1135.15 758.928 1135.14 758.934 1135.14 758.942C1135.12 758.956 1135.09 758.976 1135.06 759.001C1135 759.051 1134.91 759.121 1134.8 759.211C1134.57 759.392 1134.25 759.654 1133.84 759.993C1133.03 760.673 1131.86 761.669 1130.43 762.964C1127.56 765.553 1123.6 769.349 1119.17 774.228C1110.31 783.963 1099.45 798.129 1091.63 815.732L1101.45 820.077Z" fill="#6A462F" style="fill:#6A462F;fill:color(display-p3 0.4157 0.2745 0.1843);fill-opacity:1;"/>
<path d="M1145 748.435C1093.48 725.636 1024.44 768.609 990.793 844.419C957.147 920.228 971.638 1000.17 1023.16 1022.96C1074.68 1045.76 1143.72 1002.79 1177.36 926.98C1211.01 851.171 1196.52 771.234 1145 748.435Z" stroke="black" style="stroke:black;stroke-opacity:1;" stroke-width="2"/>
<path d="M1084.08 885.699C1084.08 885.699 1086.63 919.653 1071.61 953.496C1056.59 987.34 1029.69 1008.26 1029.69 1008.26" stroke="black" style="stroke:black;stroke-opacity:1;" stroke-width="2" stroke-linecap="round" stroke-linejoin="round"/>
<path d="M1084.08 885.699C1084.08 885.699 1081.53 851.746 1096.55 817.903C1111.57 784.059 1138.47 763.142 1138.47 763.142" stroke="black" style="stroke:black;stroke-opacity:1;" stroke-width="2" stroke-linecap="round" stroke-linejoin="round"/>
<path d="M1145 748.435C1093.48 725.636 1024.44 768.609 990.793 844.419C957.147 920.228 971.638 1000.17 1023.16 1022.96C1074.68 1045.76 1143.72 1002.79 1177.36 926.98C1211.01 851.171 1196.52 771.234 1145 748.435Z" fill="#A57939" style="fill:#A57939;fill:color(display-p3 0.6471 0.4745 0.2235);fill-opacity:1;"/>
<path fill-rule="evenodd" clip-rule="evenodd" d="M1143.46 747.756C1143.54 747.789 1143.51 747.902 1143.43 747.895C1096.38 743.698 1040.95 786.179 1011.22 853.162C981.478 920.182 987.218 989.763 1021.98 1021.72C1022.26 1021.98 1021.97 1022.44 1021.62 1022.28C970.95 999.861 957.147 920.228 990.793 844.419C1024.44 768.609 1092.79 725.332 1143.46 747.756Z" fill="#6A462F" style="fill:#6A462F;fill:color(display-p3 0.4157 0.2745 0.1843);fill-opacity:1;"/>
<path fill-rule="evenodd" clip-rule="evenodd" d="M1138.47 763.144C1138.47 763.144 1143.58 831.051 1113.54 898.738C1083.6 966.193 1030.05 1007.97 1029.69 1008.26C1029.94 1008.06 1056.66 987.178 1071.61 953.498C1086.63 919.655 1084.08 885.701 1084.08 885.701C1084.08 885.701 1081.52 851.748 1096.54 817.905C1111.57 784.061 1138.47 763.144 1138.47 763.144Z" fill="#6A462F" style="fill:#6A462F;fill:color(display-p3 0.4157 0.2745 0.1843);fill-opacity:1;"/>
<path d="M1138.47 763.144L1143.83 762.742C1143.68 760.772 1142.46 759.042 1140.65 758.241C1138.84 757.441 1136.73 757.699 1135.17 758.912L1138.47 763.144ZM1029.69 1008.26L1026.38 1004.03C1024.04 1005.85 1023.63 1009.22 1025.45 1011.56C1027.28 1013.89 1030.65 1014.31 1032.99 1012.49L1029.69 1008.26ZM1118.45 900.91C1133.77 866.385 1140.1 831.885 1142.61 806.078C1143.87 793.159 1144.18 782.378 1144.17 774.805C1144.16 771.018 1144.08 768.031 1144 765.977C1143.96 764.949 1143.91 764.155 1143.88 763.611C1143.87 763.338 1143.85 763.128 1143.84 762.983C1143.84 762.911 1143.83 762.854 1143.83 762.814C1143.83 762.794 1143.83 762.777 1143.83 762.766C1143.83 762.76 1143.83 762.755 1143.83 762.751C1143.83 762.749 1143.83 762.743 1143.83 762.742C1143.83 762.742 1142.04 762.879 1138.47 763.144C1134.9 763.411 1133.12 763.544 1133.12 763.543C1133.12 763.548 1133.12 763.56 1133.12 763.573C1133.12 763.599 1133.12 763.641 1133.13 763.698C1133.13 763.814 1133.15 763.994 1133.16 764.235C1133.19 764.719 1133.23 765.45 1133.27 766.411C1133.34 768.335 1133.42 771.182 1133.43 774.819C1133.44 782.094 1133.14 792.52 1131.92 805.039C1129.48 830.107 1123.34 863.403 1108.63 896.565L1118.45 900.91ZM1032.99 1012.49C1033.56 1012.04 1087.96 969.596 1118.45 900.91L1108.63 896.565C1079.24 962.79 1026.54 1003.91 1026.38 1004.03L1032.99 1012.49ZM1066.7 951.326C1059.53 967.487 1049.49 980.652 1041.16 989.832C1032.84 998.999 1026.34 1004.06 1026.38 1004.03L1032.99 1012.49C1033.45 1012.12 1061.03 990.58 1076.52 955.671L1066.7 951.326ZM1084.08 885.701C1080.51 885.969 1078.72 886.104 1078.72 886.103C1078.72 886.112 1078.72 886.132 1078.73 886.158C1078.73 886.208 1078.74 886.29 1078.74 886.404C1078.76 886.63 1078.77 886.98 1078.79 887.444C1078.83 888.374 1078.87 889.761 1078.87 891.542C1078.88 895.106 1078.73 900.23 1078.13 906.389C1076.93 918.739 1073.91 935.085 1066.7 951.326L1076.52 955.671C1084.33 938.068 1087.55 920.517 1088.82 907.429C1089.46 900.869 1089.62 895.389 1089.61 891.529C1089.61 889.598 1089.57 888.069 1089.52 887.009C1089.5 886.479 1089.48 886.066 1089.46 885.779C1089.46 885.635 1089.45 885.523 1089.44 885.442C1089.44 885.403 1089.44 885.37 1089.44 885.347C1089.44 885.335 1089.43 885.325 1089.43 885.317C1089.43 885.314 1089.43 885.31 1089.43 885.308C1089.43 885.309 1089.43 885.306 1089.43 885.308C1089.43 885.308 1087.65 885.436 1084.08 885.701ZM1084.08 885.701C1087.65 885.436 1089.43 885.308 1089.43 885.308C1089.43 885.308 1089.43 885.302 1089.43 885.297C1089.43 885.288 1089.43 885.271 1089.43 885.245C1089.43 885.195 1089.42 885.113 1089.41 884.999C1089.4 884.773 1089.38 884.423 1089.36 883.959C1089.32 883.029 1089.29 881.642 1089.28 879.861C1089.28 876.297 1089.42 871.173 1090.02 865.013C1091.23 852.664 1094.25 836.317 1101.45 820.077L1091.63 815.732C1083.82 833.335 1080.61 850.886 1079.33 863.974C1078.69 870.534 1078.54 876.014 1078.54 879.874C1078.54 881.805 1078.59 883.334 1078.63 884.394C1078.65 884.924 1078.67 885.337 1078.69 885.624C1078.7 885.768 1078.71 885.88 1078.71 885.96C1078.71 886 1078.72 886.032 1078.72 886.056C1078.72 886.068 1078.72 886.078 1078.72 886.086C1078.72 886.089 1078.72 886.093 1078.72 886.095C1078.72 886.097 1078.72 886.095 1078.72 886.095C1078.72 886.095 1080.51 885.967 1084.08 885.701ZM1101.45 820.077C1108.66 803.837 1118.76 790.623 1127.12 781.438C1131.28 776.857 1134.99 773.309 1137.63 770.918C1138.96 769.723 1140.01 768.821 1140.73 768.224C1141.09 767.926 1141.36 767.705 1141.53 767.563C1141.62 767.492 1141.69 767.44 1141.73 767.409C1141.75 767.393 1141.76 767.383 1141.77 767.377C1141.77 767.374 1141.77 767.372 1141.77 767.372C1141.77 767.372 1140.67 765.964 1138.47 763.144C1136.27 760.323 1135.17 758.911 1135.17 758.912C1135.17 758.912 1135.17 758.917 1135.17 758.917C1135.16 758.919 1135.16 758.921 1135.16 758.923C1135.15 758.928 1135.14 758.934 1135.14 758.942C1135.12 758.956 1135.09 758.976 1135.06 759.001C1135 759.051 1134.91 759.121 1134.8 759.211C1134.57 759.392 1134.25 759.654 1133.84 759.993C1133.03 760.673 1131.86 761.669 1130.43 762.964C1127.56 765.553 1123.6 769.349 1119.17 774.228C1110.31 783.963 1099.45 798.129 1091.63 815.732L1101.45 820.077Z" fill="#6A462F" style="fill:#6A462F;fill:color(display-p3 0.4157 0.2745 0.1843);fill-opacity:1;"/>
<path d="M1145 748.435C1093.48 725.636 1024.44 768.609 990.793 844.419C957.147 920.228 971.638 1000.17 1023.16 1022.96C1074.68 1045.76 1143.72 1002.79 1177.36 926.98C1211.01 851.171 1196.52 771.234 1145 748.435Z" stroke="black" style="stroke:black;stroke-opacity:1;" stroke-width="2"/>
<path d="M1084.08 885.699C1084.08 885.699 1086.63 919.653 1071.61 953.496C1056.59 987.34 1029.69 1008.26 1029.69 1008.26" stroke="black" style="stroke:black;stroke-opacity:1;" stroke-width="2" stroke-linecap="round" stroke-linejoin="round"/>
<path d="M1084.08 885.699C1084.08 885.699 1081.53 851.746 1096.55 817.903C1111.57 784.059 1138.47 763.142 1138.47 763.142" stroke="black" style="stroke:black;stroke-opacity:1;" stroke-width="2" stroke-linecap="round" stroke-linejoin="round"/>
</g>
<defs>
<clipPath id="clip0_29_344">
<rect width="694.719" height="693.994" fill="white" style="fill:white;fill-opacity:1;" transform="matrix(0.707107 0.707107 -0.707873 0.70634 654.26 41)"/>
</clipPath>
<clipPath id="clip1_29_344">
<rect width="352.768" height="352.401" fill="white" style="fill:white;fill-opacity:1;" transform="matrix(0.93783 0.347095 -0.348112 0.937453 98.6747 30)"/>
</clipPath>
<clipPath id="clip2_29_344">
<rect width="386.57" height="386.167" fill="white" style="fill:white;fill-opacity:1;" transform="matrix(0.740049 0.672553 -0.673355 0.73932 1120.03 0)"/>
</clipPath>
<clipPath id="clip3_29_344">
<rect width="386.57" height="386.167" fill="white" style="fill:white;fill-opacity:1;" transform="matrix(-0.502241 0.864728 -0.864183 -0.503178 443.957 842.852)"/>
</clipPath>
<clipPath id="clip4_29_344">
<rect width="386.57" height="386.167" fill="white" style="fill:white;fill-opacity:1;" transform="matrix(-0.914463 -0.404669 0.40566 -0.914024 1182.5 1140.4)"/>
</clipPath>
</defs>
</svg>
